#!OML:ASF E:\emotionWalksFemale\Project 1\Capture day 1\Session 1\Female1.ASF
:FULLY-SPECIFIED
:DEGREES
676
root 7.06634 15.1397 29.5993 174.577 -20.2017 185.763
lowerback 7.76938 2.86442 -2.33683
upperback -2.43055 3.29456 -2.93034
thorax -6.87358 1.6078 -2.20726
lowerneck 3.17464 -9.15845 -13.566
upperneck 0.0774152 -12.7788 11.6449
head 1.13813 -6.49174 5.48026
rclavicle 5.37713e-014 5.88403e-014
rhumerus -25.191 4.39689 -80.2673
rradius 33.422
rwrist 20.7587
rhand 0.0883481 -46.1819
rfingers 7.12502
rthumb 25.675 -74.4704
lclavicle 5.37713e-014 5.88403e-014
lhumerus -39.7673 18.6426 73.6072
lradius 38.6821
lwrist -11.7699
lhand 1.10269 -36.0054
lfingers 7.12502
lthumb 26.6461 -7.86071
rfemur 8.25604 -9.14482 28.1567
rtibia 41.4865
rfoot 10.5639 -19.0294
rtoes 16.6923
lfemur -19.7849 -18.5307 -16.7825
ltibia 37.4455
lfoot -21.3211 -7.58292
ltoes -35.31
677
root 7.05573 15.1517 29.5605 174.477 -20.2504 185.784
lowerback 7.89356 2.89894 -2.35648
upperback -2.45925 3.33236 -2.92599
thorax -6.97636 1.62662 -2.20588
lowerneck 3.28852 -9.17964 -13.5454
upperneck -0.228138 -12.8046 11.7545
head 1.0395 -6.50812 5.52347
rclavicle -2.10712e-014 -1.59028e-014
rhumerus -25.2594 5.09604 -81.2693
rradius 33.7441
rwrist 21.2055
rhand 0.230667 -44.7028
rfingers 7.12502
rthumb 25.8113 -72.9716
lclavicle -2.10712e-014 -1.59028e-014
lhumerus -40.0623 18.9758 73.3678
lradius 37.8232
lwrist -12.8068
lhand 3.04261 -37.1053
lfingers 7.12502
lthumb 28.5013 -9.25685
rfemur 8.83883 -9.04709 28.2006
rtibia 40.7424
rfoot 10.8073 -19.3744
rtoes 17.869
lfemur -19.5063 -18.6298 -16.8435
ltibia 37.5255
lfoot -21.4745 -7.48163
ltoes -35.3213
678
root 7.04646 15.1597 29.5195 174.424 -20.3718 185.826
lowerback 7.89261 2.90408 -2.37538
upperback -2.44829 3.33875 -2.91576
thorax -6.96579 1.63103 -2.18494
lowerneck 3.17045 -9.21557 -13.6071
upperneck -0.239938 -12.8462 11.9209
head 1.07577 -6.52809 5.57411
rclavicle 3.90612e-014 3.49861e-014
rhumerus -25.3538 5.95434 -82.2446
rradius 34.3149
rwrist 21.2009
rhand 0.0487509 -43.2729
rfingers 7.12502
rthumb 25.6371 -71.5669
lclavicle 3.90612e-014 3.49861e-014
lhumerus -40.1837 19.2787 73.1279
lradius 36.95
lwrist -13.7929
lhand 4.61066 -37.3169
lfingers 7.12502
lthumb 29.9985 -9.72938
rfemur 9.36449 -8.99275 28.2978
rtibia 39.996
rfoot 10.9983 -19.7836
rtoes 18.9774
lfemur -19.3595 -18.7479 -16.8547
ltibia 37.6621
lfoot -21.6055 -7.48028
ltoes -35.0382
679
root 7.04653 15.1576 29.4579 173.265 -20.0276 187.19
lowerback 8.2442 2.94868 -1.42362
upperback -2.23042 3.56115 -2.42678
thorax -6.90058 1.72549 -2.24573
lowerneck 2.86292 -9.28417 -13.5375
upperneck -0.0252657 -12.9052 11.7228
head 1.178 -6.54698 5.47799
rclavicle -1.36167e-014 1.59028e-015
rhumerus -25.4268 7.01714 -83.2423
rradius 34.8821
rwrist 20.6639
rhand 0.680285 -43.3859
rfingers 7.12502
rthumb 26.2418 -71.5914
lclavicle -1.36167e-014 1.59028e-015
lhumerus -40.3856 19.6531 72.7591
lradius 36.2747
lwrist -14.8938
lhand 6.0932 -37.1173
lfingers 7.12502
lthumb 31.4121 -9.79517
rfemur 10.5122 -8.45531 29.998
rtibia 39.2368
rfoot 11.2977 -20.5087
rtoes 19.2122
lfemur -18.5283 -18.516 -15.5748
ltibia 37.8909
lfoot -21.9028 -7.80322
ltoes -33.8941
680
root 7.03386 15.1637 29.4274 173.392 -20.0313 187.522
lowerback 8.18514 2.94146 -1.11793
upperback -2.37468 3.59641 -2.33373
thorax -7.00557 1.73387 -2.32667
lowerneck 2.57642 -9.35884 -13.464
upperneck 0.189861 -12.9749 11.5223
head 1.27774 -6.5722 5.38123
rclavicle -4.30369e-014 1.59028e-014
rhumerus -25.6653 7.90375 -84.1779
rradius 35.5407
rwrist 20.4609
rhand 2.7052 -43.9902
rfingers 7.12502
rthumb 28.1788 -71.8922
lclavicle -4.30369e-014 1.59028e-014
lhumerus -40.7102 20.1523 72.1373
lradius 35.6461
lwrist -16.1702
lhand 7.59038 -37.1435
lfingers 7.12502
lthumb 32.8375 -10.1091
rfemur 10.6456 -8.28981 30.4474
rtibia 38.5339
rfoot 11.6412 -20.773
rtoes 19.207
lfemur -18.7781 -18.5103 -15.1824
ltibia 38.0964
lfoot -22.0358 -7.88229
ltoes -33.1985
